<mxfile host="app.diagrams.net" modified="2021-10-04T00:32:18.347Z" agent="5.0 (Macintosh; Intel Mac OS X 10_15_7) AppleWebKit/605.1.15 (KHTML, like Gecko) Version/14.1.2 Safari/605.1.15" etag="AG3yTylYxne5OzGZ7Jio" version="15.4.1" type="github">
  <diagram id="HgoqQrwa6oV78hdgzLIR" name="Page-1">
    <mxGraphModel dx="852" dy="685" grid="1" gridSize="10" guides="1" tooltips="1" connect="1" arrows="1" fold="1" page="1" pageScale="1" pageWidth="850" pageHeight="1100" math="0" shadow="0">
      <root>
        <mxCell id="0" />
        <mxCell id="1" parent="0" />
        <mxCell id="UwKxW6n4yMTbyl2AQwzY-4" value="AWS Cloud" style="sketch=0;outlineConnect=0;gradientColor=none;html=1;whiteSpace=wrap;fontSize=12;fontStyle=0;shape=mxgraph.aws4.group;grIcon=mxgraph.aws4.group_aws_cloud;strokeColor=#858B94;fillColor=none;verticalAlign=top;align=left;spacingLeft=30;fontColor=#858B94;dashed=0;" vertex="1" parent="1">
          <mxGeometry x="50" y="20" width="750" height="460" as="geometry" />
        </mxCell>
        <mxCell id="UwKxW6n4yMTbyl2AQwzY-1" value="Us-west-1" style="points=[[0,0],[0.25,0],[0.5,0],[0.75,0],[1,0],[1,0.25],[1,0.5],[1,0.75],[1,1],[0.75,1],[0.5,1],[0.25,1],[0,1],[0,0.75],[0,0.5],[0,0.25]];outlineConnect=0;gradientColor=none;html=1;whiteSpace=wrap;fontSize=12;fontStyle=0;shape=mxgraph.aws4.group;grIcon=mxgraph.aws4.group_region;strokeColor=#147EBA;fillColor=none;verticalAlign=top;align=left;spacingLeft=30;fontColor=#147EBA;dashed=1;" vertex="1" parent="1">
          <mxGeometry x="460" y="50" width="320" height="190" as="geometry" />
        </mxCell>
        <mxCell id="UwKxW6n4yMTbyl2AQwzY-2" value="AZ-1" style="sketch=0;outlineConnect=0;gradientColor=none;html=1;whiteSpace=wrap;fontSize=12;fontStyle=0;shape=mxgraph.aws4.group;grIcon=mxgraph.aws4.group_availability_zone;strokeColor=#545B64;fillColor=none;verticalAlign=top;align=left;spacingLeft=30;fontColor=#545B64;dashed=1;" vertex="1" parent="1">
          <mxGeometry x="480" y="80" width="130" height="140" as="geometry" />
        </mxCell>
        <mxCell id="UwKxW6n4yMTbyl2AQwzY-3" value="" style="outlineConnect=0;dashed=0;verticalLabelPosition=bottom;verticalAlign=top;align=center;html=1;shape=mxgraph.aws3.sql_slave;fillColor=#2E73B8;gradientColor=none;" vertex="1" parent="1">
          <mxGeometry x="510" y="130" width="60" height="64.5" as="geometry" />
        </mxCell>
        <mxCell id="UwKxW6n4yMTbyl2AQwzY-5" value="AZ-2" style="sketch=0;outlineConnect=0;gradientColor=none;html=1;whiteSpace=wrap;fontSize=12;fontStyle=0;shape=mxgraph.aws4.group;grIcon=mxgraph.aws4.group_availability_zone;strokeColor=#545B64;fillColor=none;verticalAlign=top;align=left;spacingLeft=30;fontColor=#545B64;dashed=1;" vertex="1" parent="1">
          <mxGeometry x="630" y="80" width="130" height="140" as="geometry" />
        </mxCell>
        <mxCell id="UwKxW6n4yMTbyl2AQwzY-6" value="" style="outlineConnect=0;dashed=0;verticalLabelPosition=bottom;verticalAlign=top;align=center;html=1;shape=mxgraph.aws3.sql_slave;fillColor=#2E73B8;gradientColor=none;" vertex="1" parent="1">
          <mxGeometry x="660" y="130" width="60" height="64.5" as="geometry" />
        </mxCell>
        <mxCell id="UwKxW6n4yMTbyl2AQwzY-12" style="edgeStyle=orthogonalEdgeStyle;rounded=0;orthogonalLoop=1;jettySize=auto;html=1;exitX=1;exitY=0.5;exitDx=0;exitDy=0;entryX=0;entryY=0.5;entryDx=0;entryDy=0;" edge="1" parent="1" source="UwKxW6n4yMTbyl2AQwzY-7" target="UwKxW6n4yMTbyl2AQwzY-1">
          <mxGeometry relative="1" as="geometry" />
        </mxCell>
        <mxCell id="UwKxW6n4yMTbyl2AQwzY-13" value="Log Shipping" style="edgeLabel;html=1;align=center;verticalAlign=middle;resizable=0;points=[];" vertex="1" connectable="0" parent="UwKxW6n4yMTbyl2AQwzY-12">
          <mxGeometry x="0.175" y="2" relative="1" as="geometry">
            <mxPoint x="-11" y="-6" as="offset" />
          </mxGeometry>
        </mxCell>
        <mxCell id="UwKxW6n4yMTbyl2AQwzY-7" value="Us-east-2" style="points=[[0,0],[0.25,0],[0.5,0],[0.75,0],[1,0],[1,0.25],[1,0.5],[1,0.75],[1,1],[0.75,1],[0.5,1],[0.25,1],[0,1],[0,0.75],[0,0.5],[0,0.25]];outlineConnect=0;gradientColor=none;html=1;whiteSpace=wrap;fontSize=12;fontStyle=0;shape=mxgraph.aws4.group;grIcon=mxgraph.aws4.group_region;strokeColor=#147EBA;fillColor=none;verticalAlign=top;align=left;spacingLeft=30;fontColor=#147EBA;dashed=1;" vertex="1" parent="1">
          <mxGeometry x="60" y="50" width="320" height="190" as="geometry" />
        </mxCell>
        <mxCell id="UwKxW6n4yMTbyl2AQwzY-8" value="AZ-1" style="sketch=0;outlineConnect=0;gradientColor=none;html=1;whiteSpace=wrap;fontSize=12;fontStyle=0;shape=mxgraph.aws4.group;grIcon=mxgraph.aws4.group_availability_zone;strokeColor=#545B64;fillColor=none;verticalAlign=top;align=left;spacingLeft=30;fontColor=#545B64;dashed=1;" vertex="1" parent="1">
          <mxGeometry x="80" y="80" width="130" height="140" as="geometry" />
        </mxCell>
        <mxCell id="UwKxW6n4yMTbyl2AQwzY-9" value="AZ-2" style="sketch=0;outlineConnect=0;gradientColor=none;html=1;whiteSpace=wrap;fontSize=12;fontStyle=0;shape=mxgraph.aws4.group;grIcon=mxgraph.aws4.group_availability_zone;strokeColor=#545B64;fillColor=none;verticalAlign=top;align=left;spacingLeft=30;fontColor=#545B64;dashed=1;" vertex="1" parent="1">
          <mxGeometry x="230" y="80" width="130" height="140" as="geometry" />
        </mxCell>
        <mxCell id="UwKxW6n4yMTbyl2AQwzY-10" value="" style="outlineConnect=0;dashed=0;verticalLabelPosition=bottom;verticalAlign=top;align=center;html=1;shape=mxgraph.aws3.ms_sql_instance;fillColor=#2E73B8;gradientColor=none;" vertex="1" parent="1">
          <mxGeometry x="110" y="130" width="60" height="64.5" as="geometry" />
        </mxCell>
        <mxCell id="UwKxW6n4yMTbyl2AQwzY-11" value="" style="outlineConnect=0;dashed=0;verticalLabelPosition=bottom;verticalAlign=top;align=center;html=1;shape=mxgraph.aws3.ms_sql_instance;fillColor=#2E73B8;gradientColor=none;" vertex="1" parent="1">
          <mxGeometry x="265" y="130" width="60" height="64.5" as="geometry" />
        </mxCell>
        <mxCell id="UwKxW6n4yMTbyl2AQwzY-17" style="edgeStyle=orthogonalEdgeStyle;rounded=0;orthogonalLoop=1;jettySize=auto;html=1;exitX=0.75;exitY=0;exitDx=0;exitDy=0;entryX=0.5;entryY=1;entryDx=0;entryDy=0;" edge="1" parent="1" source="UwKxW6n4yMTbyl2AQwzY-14" target="UwKxW6n4yMTbyl2AQwzY-7">
          <mxGeometry relative="1" as="geometry" />
        </mxCell>
        <mxCell id="UwKxW6n4yMTbyl2AQwzY-18" style="edgeStyle=orthogonalEdgeStyle;rounded=0;orthogonalLoop=1;jettySize=auto;html=1;exitX=1;exitY=0.5;exitDx=0;exitDy=0;" edge="1" parent="1" source="UwKxW6n4yMTbyl2AQwzY-14" target="UwKxW6n4yMTbyl2AQwzY-1">
          <mxGeometry relative="1" as="geometry" />
        </mxCell>
        <mxCell id="UwKxW6n4yMTbyl2AQwzY-14" value="Us-east-1" style="points=[[0,0],[0.25,0],[0.5,0],[0.75,0],[1,0],[1,0.25],[1,0.5],[1,0.75],[1,1],[0.75,1],[0.5,1],[0.25,1],[0,1],[0,0.75],[0,0.5],[0,0.25]];outlineConnect=0;gradientColor=none;html=1;whiteSpace=wrap;fontSize=12;fontStyle=0;shape=mxgraph.aws4.group;grIcon=mxgraph.aws4.group_region;strokeColor=#147EBA;fillColor=none;verticalAlign=top;align=left;spacingLeft=30;fontColor=#147EBA;dashed=1;" vertex="1" parent="1">
          <mxGeometry x="90" y="260" width="170" height="190" as="geometry" />
        </mxCell>
        <mxCell id="UwKxW6n4yMTbyl2AQwzY-15" value="AZ-1" style="sketch=0;outlineConnect=0;gradientColor=none;html=1;whiteSpace=wrap;fontSize=12;fontStyle=0;shape=mxgraph.aws4.group;grIcon=mxgraph.aws4.group_availability_zone;strokeColor=#545B64;fillColor=none;verticalAlign=top;align=left;spacingLeft=30;fontColor=#545B64;dashed=1;" vertex="1" parent="1">
          <mxGeometry x="110" y="290" width="130" height="140" as="geometry" />
        </mxCell>
        <mxCell id="UwKxW6n4yMTbyl2AQwzY-16" value="Monitor Instance" style="outlineConnect=0;dashed=0;verticalLabelPosition=bottom;verticalAlign=top;align=center;html=1;shape=mxgraph.aws3.ms_sql_instance_2;fillColor=#2E73B8;gradientColor=none;" vertex="1" parent="1">
          <mxGeometry x="145" y="340" width="60" height="63" as="geometry" />
        </mxCell>
      </root>
    </mxGraphModel>
  </diagram>
</mxfile>
